<?xml version="1.0" standalone="no"?>
<!DOCTYPE svg PUBLIC "-//W3C//DTD SVG 20010904//EN"
 "http://www.w3.org/TR/2001/REC-SVG-20010904/DTD/svg10.dtd">
<svg version="1.0" xmlns="http://www.w3.org/2000/svg"
 width="1536.000000pt" height="1024.000000pt" viewBox="0 0 1536.000000 1024.000000"
 preserveAspectRatio="xMidYMid meet">

<g transform="translate(0.000000,1024.000000) scale(0.100000,-0.100000)"
fill="#000000" stroke="none">
<path d="M6740 8514 c-177 -46 -323 -161 -427 -337 -67 -113 -105 -152 -186
-194 l-52 -28 -325 -6 c-292 -6 -332 -9 -398 -28 -223 -66 -399 -222 -478
-425 -55 -139 -54 -110 -54 -1373 1 -1320 -2 -1265 75 -1420 103 -208 306
-347 542 -372 117 -12 3893 -14 4038 -1 201 16 335 77 465 209 83 85 139 172
173 271 l22 65 3 1214 c2 1191 2 1216 -18 1295 -54 214 -201 390 -406 487
-137 65 -173 70 -524 77 l-315 7 -57 29 c-74 37 -115 82 -178 190 -84 146
-161 221 -295 286 -143 69 -153 70 -892 69 -539 0 -668 -3 -713 -15z m920
-964 c311 -38 584 -171 815 -398 351 -345 490 -836 370 -1309 -112 -442 -459
-812 -898 -958 -158 -52 -266 -68 -467 -69 -189 0 -283 13 -427 60 -491 160
-847 603 -913 1134 -53 430 89 849 390 1150 236 236 481 351 835 393 66 8 215
6 295 -3z m1794 -200 c79 -18 118 -68 118 -151 0 -62 -25 -106 -77 -133 -32
-16 -63 -21 -162 -24 -148 -5 -201 6 -242 54 -72 81 -35 224 65 254 39 11 249
12 298 0z"/>
<path d="M7564 7344 c3 -8 58 -105 122 -217 64 -111 169 -292 232 -402 181
-317 183 -319 198 -303 7 7 78 123 158 257 l146 245 -32 34 c-61 65 -215 187
-295 234 -147 87 -323 146 -486 161 -38 4 -47 2 -43 -9z"/>
<path d="M7244 7335 c-212 -48 -412 -155 -559 -299 -70 -70 -153 -174 -181
-228 l-15 -28 605 0 605 0 -67 118 c-36 64 -107 191 -158 282 l-92 165 -39 2
c-21 1 -65 -5 -99 -12z"/>
<path d="M8313 6407 c-116 -193 -245 -413 -288 -487 -43 -74 -87 -147 -97
-162 l-19 -28 339 0 339 0 10 23 c38 83 83 319 83 436 0 91 -27 261 -56 354
-26 80 -80 204 -94 212 -4 3 -102 -154 -217 -348z"/>
<path d="M6409 6603 c-103 -271 -103 -605 0 -869 18 -43 38 -90 45 -103 l14
-24 24 39 c14 21 64 104 113 184 118 195 256 420 381 622 57 92 104 170 104
173 0 3 -151 5 -335 5 l-335 0 -11 -27z"/>
<path d="M6886 5983 c-8 -16 -82 -138 -165 -272 -83 -134 -151 -246 -151 -250
0 -4 32 -42 70 -84 189 -204 451 -333 721 -353 l92 -7 -59 110 c-247 460 -480
883 -486 883 -4 0 -14 -12 -22 -27z"/>
<path d="M7334 5575 c3 -8 74 -135 157 -281 l152 -266 54 6 c224 26 462 147
637 322 60 60 176 208 176 225 0 5 -241 9 -591 9 -521 0 -590 -2 -585 -15z"/>
<path d="M3590 2850 l0 -670 135 0 135 0 0 447 0 448 93 -230 c52 -127 133
-328 182 -447 l88 -218 97 0 96 0 169 423 c92 232 174 436 181 452 10 25 13
-50 13 -422 l1 -453 135 0 135 0 0 670 0 670 -174 0 -174 0 -45 -107 c-94
-225 -281 -691 -308 -768 -21 -59 -30 -74 -34 -60 -9 28 -253 642 -318 800
l-54 130 -176 3 -177 2 0 -670z"/>
<path d="M10179 3392 l-76 -3 -13 -109 -13 -110 -78 0 -79 0 0 -90 c0 -49 -1
-93 -2 -97 -2 -5 34 -9 79 -11 l82 -3 3 -317 c3 -312 3 -318 27 -366 44 -87
126 -126 268 -126 37 0 95 5 130 11 l63 11 0 104 0 104 -26 -10 c-14 -6 -52
-10 -85 -10 -50 0 -64 4 -84 24 -32 33 -36 74 -33 345 l3 234 113 -2 112 -2 0
100 0 101 -115 0 -115 0 0 115 0 115 -42 -2 c-24 -2 -77 -4 -119 -6z"/>
<path d="M5555 3190 c-99 -22 -193 -70 -247 -127 -40 -42 -95 -139 -115 -202
-25 -83 -25 -305 1 -385 29 -88 86 -169 155 -220 83 -61 163 -87 286 -93 172
-9 295 34 395 137 92 94 140 223 140 380 0 241 -117 421 -318 491 -65 23 -233
34 -297 19z m228 -237 c87 -61 133 -215 108 -364 -29 -179 -140 -261 -296
-218 -54 15 -118 82 -141 150 -24 71 -25 222 -1 300 21 69 77 135 132 155 61
22 149 12 198 -23z"/>
<path d="M6725 3186 c-66 -21 -98 -42 -148 -95 l-47 -50 0 69 0 70 -135 0
-135 0 0 -500 0 -500 135 0 135 0 0 298 c0 333 6 374 63 439 82 94 219 83 272
-22 19 -37 20 -63 23 -377 l3 -338 129 0 129 0 3 328 c3 317 4 328 25 369 69
128 244 140 302 20 20 -41 21 -58 21 -380 l0 -337 135 0 135 0 0 348 c0 376
-7 435 -55 518 -31 52 -86 101 -144 128 -67 30 -216 29 -285 -2 -65 -30 -111
-65 -146 -113 l-28 -39 -25 43 c-50 84 -143 133 -259 135 -35 1 -81 -5 -103
-12z"/>
<path d="M8250 3191 c-232 -44 -372 -236 -373 -511 0 -173 45 -302 139 -395
89 -88 193 -125 347 -125 148 0 249 41 336 135 48 52 79 111 65 124 -5 5 -45
20 -90 33 l-81 25 -41 -43 c-54 -58 -101 -77 -187 -77 -82 0 -140 24 -178 75
-26 34 -57 124 -57 165 l0 23 335 0 335 0 0 84 c0 241 -91 399 -270 467 -59
22 -209 33 -280 20z m201 -204 c51 -27 86 -82 95 -151 l7 -46 -207 0 -206 0 0
28 c0 35 41 121 71 149 35 32 66 42 135 42 45 1 72 -5 105 -22z"/>
<path d="M9391 3185 c-71 -20 -109 -44 -165 -106 l-46 -51 0 76 0 76 -130 0
-130 0 0 -500 0 -500 129 0 130 0 3 323 c3 308 4 324 25 362 41 77 105 115
193 115 90 0 144 -45 166 -137 10 -42 14 -140 14 -360 l0 -303 131 0 130 0 -3
383 c-3 350 -5 386 -23 430 -32 77 -84 138 -147 170 -70 36 -192 46 -277 22z"/>
<path d="M11015 3194 c-11 -2 -40 -10 -65 -16 -209 -51 -350 -258 -350 -513 0
-194 75 -340 223 -436 140 -91 394 -92 544 -3 106 64 159 133 199 259 19 61
24 97 24 188 0 266 -105 434 -310 498 -62 19 -223 33 -265 23z m187 -231 c41
-24 94 -93 108 -141 19 -63 24 -197 10 -262 -15 -73 -58 -141 -107 -171 -54
-34 -155 -37 -213 -7 -92 47 -137 162 -128 328 8 140 67 242 157 271 40 13
137 3 173 -18z"/>
</g>
</svg>
