<?xml version="1.0" standalone="no"?>
<!DOCTYPE svg PUBLIC "-//W3C//DTD SVG 20010904//EN"
 "http://www.w3.org/TR/2001/REC-SVG-20010904/DTD/svg10.dtd">
<svg version="1.0" xmlns="http://www.w3.org/2000/svg"
 width="1024.000000pt" height="1024.000000pt" viewBox="0 0 1024.000000 1024.000000"
 preserveAspectRatio="xMidYMid meet">

<g transform="translate(0.000000,1024.000000) scale(0.100000,-0.100000)"
fill="#000000" stroke="none">
<path d="M0 5120 l0 -5120 5120 0 5120 0 0 5120 0 5120 -5120 0 -5120 0 0
-5120z m5755 2654 c113 -28 172 -80 317 -276 81 -108 125 -153 173 -174 11 -4
173 -11 360 -15 285 -5 349 -9 395 -24 126 -40 237 -117 311 -216 56 -73 77
-117 100 -206 18 -73 19 -120 19 -1117 0 -873 -3 -1051 -15 -1102 -52 -221
-226 -398 -442 -451 -61 -14 -236 -16 -1808 -19 -1049 -1 -1773 2 -1823 7
-263 30 -466 208 -532 465 -19 74 -20 114 -20 1103 0 1128 -1 1099 62 1229 42
88 168 217 253 260 126 63 139 65 512 71 l341 6 43 30 c27 19 78 79 135 160
108 152 184 226 263 257 50 19 81 23 271 27 395 11 1018 2 1085 -15z m-3052
-4483 c65 -170 121 -319 124 -330 7 -28 19 -27 26 2 2 12 59 159 125 327 l121
305 116 3 115 3 0 -471 0 -470 -85 0 -86 0 3 344 c2 189 1 342 -2 340 -2 -3
-61 -157 -130 -342 l-126 -337 -65 -3 -65 -3 -11 33 c-6 18 -63 173 -127 343
l-115 310 -1 -342 0 -343 -85 0 -85 0 0 470 0 470 118 0 117 0 118 -309z
m4287 157 l0 -93 67 0 68 0 0 -65 0 -65 -67 2 -68 2 0 -199 c0 -232 3 -240 86
-249 l49 -6 0 -60 0 -60 -70 -3 c-117 -5 -190 38 -215 126 -5 20 -10 130 -10
243 l0 205 -47 0 -48 -1 1 57 c2 74 8 81 55 75 l39 -5 0 94 0 94 80 0 80 0 0
-92z m-1195 -116 c54 -27 99 -77 125 -135 19 -42 50 -175 50 -213 0 -12 -41
-14 -245 -14 -274 0 -256 5 -235 -72 32 -113 181 -153 270 -72 35 32 42 34
109 34 84 0 94 -11 61 -64 -34 -56 -108 -114 -163 -131 -67 -20 -172 -19 -237
2 -69 22 -141 88 -177 161 -26 53 -28 66 -28 177 0 132 13 177 74 254 78 99
276 135 396 73z m-1885 12 c71 -21 159 -107 184 -179 58 -170 10 -383 -103
-458 -68 -45 -131 -60 -234 -55 -74 3 -102 9 -142 30 -110 57 -156 139 -163
291 -8 158 27 257 113 323 81 61 230 82 345 48z m755 -3 c23 -10 53 -32 67
-49 l26 -31 18 21 c44 47 104 72 188 76 70 3 87 0 126 -20 49 -25 92 -81 110
-143 6 -22 14 -150 17 -288 l6 -248 -84 3 -84 3 -1 228 c-1 125 -5 243 -8 262
-18 96 -166 100 -221 5 -18 -32 -20 -57 -25 -265 l-5 -230 -77 -3 -78 -3 0
209 c0 243 -9 307 -46 340 -52 46 -153 18 -189 -54 -18 -35 -20 -63 -23 -267
l-4 -228 -74 3 -75 3 0 340 0 340 76 3 c74 3 75 3 75 -23 0 -30 4 -31 38 -6
64 44 177 54 247 22z m1898 -17 c50 -35 84 -97 97 -180 6 -32 10 -155 10 -271
l0 -213 -79 0 -79 0 -4 238 c-4 261 -12 303 -63 322 -68 26 -161 -4 -192 -63
-15 -27 -18 -65 -21 -264 l-4 -233 -79 0 -79 0 0 345 0 345 80 0 c79 0 80 0
80 -25 0 -29 7 -31 30 -10 34 31 93 45 178 42 72 -3 88 -7 125 -33z m1138 8
c125 -61 189 -194 176 -367 -15 -198 -118 -303 -308 -313 -161 -8 -257 41
-319 162 -34 67 -35 73 -35 180 0 195 60 298 205 350 67 24 220 18 281 -12z"/>
<path d="M4985 7004 c-366 -56 -647 -217 -848 -486 -111 -148 -197 -349 -228
-533 -19 -114 -14 -314 11 -435 95 -463 430 -816 889 -937 79 -21 126 -27 266
-30 147 -4 184 -2 275 17 273 56 538 215 704 422 199 248 289 521 272 823 -31
568 -433 1035 -980 1140 -81 16 -304 27 -361 19z m153 -429 l123 -245 -516 0
c-283 0 -515 2 -515 5 0 15 91 128 152 188 139 137 328 238 529 282 109 23 90
42 227 -230z m258 209 c205 -59 393 -182 516 -337 l30 -37 -70 -108 c-38 -59
-104 -165 -147 -237 -43 -71 -83 -136 -89 -142 -8 -9 -68 99 -241 434 -127
246 -232 451 -234 457 -6 16 144 -3 235 -30z m650 -556 c115 -226 134 -497 53
-743 l-30 -90 -297 3 c-163 2 -298 4 -300 6 -2 2 57 100 130 218 74 117 196
313 272 436 76 122 140 222 142 222 2 0 16 -24 30 -52z m-1861 -28 c4 -6 103
-7 281 -3 150 3 274 4 274 1 0 -5 -443 -711 -521 -830 -13 -21 -27 -38 -30
-38 -13 0 -72 168 -90 255 -36 173 -21 398 38 556 25 67 35 80 48 59z m563
-862 c219 -429 282 -556 282 -567 0 -22 -215 24 -323 69 -83 34 -200 108 -269
168 -61 53 -168 173 -168 188 0 7 31 59 68 116 38 57 104 160 148 230 43 70
82 128 85 128 4 0 83 -150 177 -332z m1252 -76 c0 -18 -136 -185 -187 -229
-156 -134 -334 -222 -508 -252 -38 -7 -80 -14 -92 -17 -21 -4 -34 18 -145 238
-68 134 -124 246 -126 250 -2 4 140 9 315 11 175 1 414 3 531 5 116 1 212 -1
212 -6z"/>
<path d="M6590 6772 c-107 -53 -103 -191 7 -238 41 -17 243 -18 293 -1 108 38
104 196 -7 243 -50 21 -248 19 -293 -4z"/>
<path d="M5586 3220 c-16 -5 -40 -19 -53 -32 -24 -22 -32 -37 -47 -85 l-7 -23
161 0 161 0 -6 23 c-31 105 -107 147 -209 117z"/>
<path d="M3703 3211 c-30 -14 -48 -31 -63 -62 -27 -53 -37 -167 -20 -237 36
-152 240 -178 312 -39 33 64 32 194 -2 262 -43 85 -137 117 -227 76z"/>
<path d="M7475 3217 c-86 -39 -127 -172 -94 -303 23 -88 109 -144 200 -129 93
16 134 92 127 238 -4 101 -20 143 -69 179 -33 25 -124 33 -164 15z"/>
</g>
</svg>
